<?xml version="1.0" encoding="utf-8"?>
<svg width="700pt" height="700pt" version="1.1" viewBox="0 0 700 700" xmlns="http://www.w3.org/2000/svg" xmlns:xlink="http://www.w3.org/1999/xlink">
  <defs>
    <symbol id="v" overflow="visible">
      <path d="m18.766-1.125c-0.96875 0.5-1.9805 0.875-3.0312 1.125-1.043 0.25781-2.1367 0.39062-3.2812 0.39062-3.3984 0-6.0898-0.94531-8.0781-2.8438-1.9922-1.9062-2.9844-4.4844-2.9844-7.7344 0-3.2578 0.99219-5.8359 2.9844-7.7344 1.9883-1.9062 4.6797-2.8594 8.0781-2.8594 1.1445 0 2.2383 0.13281 3.2812 0.39062 1.0508 0.25 2.0625 0.625 3.0312 1.125v4.2188c-0.98047-0.65625-1.9453-1.1406-2.8906-1.4531-0.94922-0.3125-1.9492-0.46875-3-0.46875-1.875 0-3.3516 0.60547-4.4219 1.8125-1.0742 1.1992-1.6094 2.8555-1.6094 4.9688 0 2.1055 0.53516 3.7617 1.6094 4.9688 1.0703 1.1992 2.5469 1.7969 4.4219 1.7969 1.0508 0 2.0508-0.14844 3-0.45312 0.94531-0.3125 1.9102-0.80078 2.8906-1.4688z"/>
    </symbol>
    <symbol id="c" overflow="visible">
      <path d="m13.734-11.141c-0.4375-0.19531-0.87109-0.34375-1.2969-0.4375-0.41797-0.10156-0.83984-0.15625-1.2656-0.15625-1.2617 0-2.2305 0.40625-2.9062 1.2188-0.67969 0.80469-1.0156 1.9531-1.0156 3.4531v7.0625h-4.8906v-15.312h4.8906v2.5156c0.625-1 1.3438-1.7266 2.1562-2.1875 0.82031-0.46875 1.8008-0.70312 2.9375-0.70312 0.16406 0 0.34375 0.011719 0.53125 0.03125 0.19531 0.011719 0.47656 0.039062 0.84375 0.078125z"/>
    </symbol>
    <symbol id="a" overflow="visible">
      <path d="m17.641-7.7031v1.4062h-11.453c0.125 1.1484 0.53906 2.0078 1.25 2.5781 0.70703 0.57422 1.7031 0.85938 2.9844 0.85938 1.0312 0 2.082-0.14844 3.1562-0.45312 1.082-0.3125 2.1914-0.77344 3.3281-1.3906v3.7656c-1.1562 0.4375-2.3125 0.76562-3.4688 0.98438-1.1562 0.22656-2.3125 0.34375-3.4688 0.34375-2.7734 0-4.9297-0.70312-6.4688-2.1094-1.5312-1.4062-2.2969-3.3789-2.2969-5.9219 0-2.5 0.75391-4.4609 2.2656-5.8906 1.5078-1.4375 3.582-2.1562 6.2188-2.1562 2.4062 0 4.332 0.73047 5.7812 2.1875 1.4453 1.4492 2.1719 3.3828 2.1719 5.7969zm-5.0312-1.625c0-0.92578-0.27344-1.6719-0.8125-2.2344-0.54297-0.57031-1.25-0.85938-2.125-0.85938-0.94922 0-1.7188 0.26562-2.3125 0.79688s-0.96484 1.2969-1.1094 2.2969z"/>
    </symbol>
    <symbol id="f" overflow="visible">
      <path d="m9.2188-6.8906c-1.0234 0-1.793 0.17188-2.3125 0.51562-0.51172 0.34375-0.76562 0.85547-0.76562 1.5312 0 0.625 0.20703 1.1172 0.625 1.4688 0.41406 0.34375 0.98828 0.51562 1.7188 0.51562 0.92578 0 1.7031-0.32812 2.3281-0.98438 0.63281-0.66406 0.95312-1.4922 0.95312-2.4844v-0.5625zm7.4688-1.8438v8.7344h-4.9219v-2.2656c-0.65625 0.92969-1.3984 1.6055-2.2188 2.0312-0.82422 0.41406-1.8242 0.625-3 0.625-1.5859 0-2.8711-0.45703-3.8594-1.375-0.99219-0.92578-1.4844-2.1289-1.4844-3.6094 0-1.7891 0.61328-3.1016 1.8438-3.9375 1.2383-0.84375 3.1797-1.2656 5.8281-1.2656h2.8906v-0.39062c0-0.76953-0.30859-1.332-0.92188-1.6875-0.61719-0.36328-1.5703-0.54688-2.8594-0.54688-1.0547 0-2.0312 0.10547-2.9375 0.3125-0.89844 0.21094-1.7305 0.52344-2.5 0.9375v-3.7344c1.0391-0.25 2.0859-0.44141 3.1406-0.57812 1.0625-0.13281 2.125-0.20312 3.1875-0.20312 2.7578 0 4.75 0.54688 5.9688 1.6406 1.2266 1.0859 1.8438 2.8555 1.8438 5.3125z"/>
    </symbol>
    <symbol id="b" overflow="visible">
      <path d="m7.7031-19.656v4.3438h5.0469v3.5h-5.0469v6.5c0 0.71094 0.14062 1.1875 0.42188 1.4375s0.83594 0.375 1.6719 0.375h2.5156v3.5h-4.1875c-1.9375 0-3.3125-0.39844-4.125-1.2031-0.80469-0.8125-1.2031-2.1797-1.2031-4.1094v-6.5h-2.4219v-3.5h2.4219v-4.3438z"/>
    </symbol>
    <symbol id="k" overflow="visible">
      <path d="m12.766-13.078v-8.2031h4.9219v21.281h-4.9219v-2.2188c-0.66797 0.90625-1.4062 1.5703-2.2188 1.9844s-1.7578 0.625-2.8281 0.625c-1.8867 0-3.4336-0.75-4.6406-2.25-1.2109-1.5-1.8125-3.4258-1.8125-5.7812 0-2.3633 0.60156-4.2969 1.8125-5.7969 1.207-1.5 2.7539-2.25 4.6406-2.25 1.0625 0 2 0.21484 2.8125 0.64062 0.82031 0.42969 1.5664 1.0859 2.2344 1.9688zm-3.2188 9.9219c1.0391 0 1.8359-0.37891 2.3906-1.1406 0.55078-0.76953 0.82812-1.8828 0.82812-3.3438 0-1.457-0.27734-2.5664-0.82812-3.3281-0.55469-0.76953-1.3516-1.1562-2.3906-1.1562-1.043 0-1.8398 0.38672-2.3906 1.1562-0.55469 0.76172-0.82812 1.8711-0.82812 3.3281 0 1.4609 0.27344 2.5742 0.82812 3.3438 0.55078 0.76172 1.3477 1.1406 2.3906 1.1406z"/>
    </symbol>
    <symbol id="j" overflow="visible">
      <path d="m10.5-3.1562c1.0508 0 1.8516-0.37891 2.4062-1.1406 0.55078-0.76953 0.82812-1.8828 0.82812-3.3438 0-1.457-0.27734-2.5664-0.82812-3.3281-0.55469-0.76953-1.3555-1.1562-2.4062-1.1562-1.0547 0-1.8594 0.38672-2.4219 1.1562-0.55469 0.77344-0.82812 1.8828-0.82812 3.3281 0 1.4492 0.27344 2.5586 0.82812 3.3281 0.5625 0.77344 1.3672 1.1562 2.4219 1.1562zm-3.25-9.9219c0.67578-0.88281 1.4219-1.5391 2.2344-1.9688 0.82031-0.42578 1.7656-0.64062 2.8281-0.64062 1.8945 0 3.4453 0.75 4.6562 2.25 1.207 1.5 1.8125 3.4336 1.8125 5.7969 0 2.3555-0.60547 4.2812-1.8125 5.7812-1.2109 1.5-2.7617 2.25-4.6562 2.25-1.0625 0-2.0078-0.21094-2.8281-0.625-0.8125-0.42578-1.5586-1.0859-2.2344-1.9844v2.2188h-4.8906v-21.281h4.8906z"/>
    </symbol>
    <symbol id="i" overflow="visible">
      <path d="m0.34375-15.312h4.8906l4.125 10.391 3.5-10.391h4.8906l-6.4375 16.766c-0.64844 1.6953-1.4023 2.8828-2.2656 3.5625-0.86719 0.6875-2 1.0312-3.4062 1.0312h-2.8438v-3.2188h1.5312c0.83203 0 1.4375-0.13672 1.8125-0.40625 0.38281-0.26172 0.67969-0.73047 0.89062-1.4062l0.14062-0.42188z"/>
    </symbol>
    <symbol id="h" overflow="visible">
      <path d="m2.5781-20.406h5.25v18.422c0 2.5391-0.69531 4.4414-2.0781 5.7031-1.375 1.2578-3.4609 1.8906-6.25 1.8906h-1.0781v-3.9844h0.82812c1.0938 0 1.9219-0.30859 2.4844-0.92188 0.5625-0.60547 0.84375-1.5 0.84375-2.6875z"/>
    </symbol>
    <symbol id="e" overflow="visible">
      <path d="m16.547-12.766c0.61328-0.94531 1.3477-1.6719 2.2031-2.1719 0.85156-0.5 1.7891-0.75 2.8125-0.75 1.7578 0 3.0977 0.54688 4.0156 1.6406 0.92578 1.0859 1.3906 2.6562 1.3906 4.7188v9.3281h-4.9219v-7.9844-0.35938c0.007813-0.13281 0.015625-0.32031 0.015625-0.5625 0-1.082-0.16406-1.8633-0.48438-2.3438-0.3125-0.48828-0.82422-0.73438-1.5312-0.73438-0.92969 0-1.6484 0.38672-2.1562 1.1562-0.51172 0.76172-0.77344 1.8672-0.78125 3.3125v7.5156h-4.9219v-7.9844c0-1.6953-0.14844-2.7852-0.4375-3.2656-0.29297-0.48828-0.8125-0.73438-1.5625-0.73438-0.9375 0-1.6641 0.38672-2.1719 1.1562-0.51172 0.76172-0.76562 1.8594-0.76562 3.2969v7.5312h-4.9219v-15.312h4.9219v2.2344c0.60156-0.86328 1.2891-1.5156 2.0625-1.9531 0.78125-0.4375 1.6406-0.65625 2.5781-0.65625 1.0625 0 2 0.25781 2.8125 0.76562 0.8125 0.51172 1.4258 1.2305 1.8438 2.1562z"/>
    </symbol>
    <symbol id="u" overflow="visible">
      <path d="m14.312-14.828v3.7188c-1.043-0.4375-2.0547-0.76562-3.0312-0.98438-0.98047-0.21875-1.9023-0.32812-2.7656-0.32812-0.92969 0-1.6211 0.11719-2.0781 0.34375-0.44922 0.23047-0.67188 0.58984-0.67188 1.0781 0 0.38672 0.17188 0.68359 0.51562 0.89062 0.34375 0.21094 0.95703 0.36719 1.8438 0.46875l0.85938 0.125c2.5078 0.32422 4.1953 0.85156 5.0625 1.5781 0.86328 0.73047 1.2969 1.8711 1.2969 3.4219 0 1.6367-0.60547 2.8672-1.8125 3.6875-1.1992 0.8125-2.9922 1.2188-5.375 1.2188-1.0234 0-2.0742-0.078125-3.1562-0.23438-1.0742-0.15625-2.1797-0.39453-3.3125-0.71875v-3.7188c0.96875 0.48047 1.9609 0.83984 2.9844 1.0781 1.0312 0.23047 2.0781 0.34375 3.1406 0.34375 0.95703 0 1.6758-0.12891 2.1562-0.39062 0.47656-0.26953 0.71875-0.66406 0.71875-1.1875 0-0.4375-0.16797-0.75781-0.5-0.96875-0.33594-0.21875-0.99609-0.38281-1.9844-0.5l-0.85938-0.10938c-2.1797-0.26953-3.7031-0.77344-4.5781-1.5156-0.875-0.73828-1.3125-1.8594-1.3125-3.3594 0-1.625 0.55078-2.8281 1.6562-3.6094 1.1133-0.78906 2.8203-1.1875 5.125-1.1875 0.89453 0 1.8359 0.074219 2.8281 0.21875 1 0.13672 2.082 0.35156 3.25 0.64062z"/>
    </symbol>
    <symbol id="t" overflow="visible">
      <path d="m16.781-19.766v4.3125c-1.125-0.5-2.2266-0.875-3.2969-1.125-1.0625-0.25781-2.0703-0.39062-3.0156-0.39062-1.25 0-2.1797 0.17969-2.7812 0.53125-0.60547 0.34375-0.90625 0.88281-0.90625 1.6094 0 0.54297 0.20312 0.96875 0.60938 1.2812 0.40625 0.30469 1.1406 0.5625 2.2031 0.78125l2.25 0.45312c2.2695 0.44922 3.8789 1.1406 4.8281 2.0781 0.95703 0.92969 1.4375 2.2461 1.4375 3.9531 0 2.25-0.66797 3.9297-2 5.0312-1.3359 1.0938-3.3711 1.6406-6.1094 1.6406-1.3047 0-2.6055-0.125-3.9062-0.375-1.3047-0.23828-2.6055-0.59766-3.9062-1.0781v-4.4531c1.3008 0.69922 2.5625 1.2266 3.7812 1.5781 1.2188 0.34375 2.3906 0.51562 3.5156 0.51562 1.1562 0 2.0352-0.1875 2.6406-0.5625 0.61328-0.38281 0.92188-0.9375 0.92188-1.6562 0-0.63281-0.21094-1.125-0.625-1.4688-0.41797-0.34375-1.2461-0.65625-2.4844-0.9375l-2.0312-0.4375c-2.043-0.4375-3.5391-1.1328-4.4844-2.0938-0.9375-0.95703-1.4062-2.25-1.4062-3.875 0-2.0312 0.65625-3.5938 1.9688-4.6875s3.1953-1.6406 5.6562-1.6406c1.125 0 2.2734 0.085938 3.4531 0.25 1.1875 0.16797 2.4141 0.42188 3.6875 0.76562z"/>
    </symbol>
    <symbol id="s" overflow="visible">
      <path d="m2.3594-15.312h4.8906v15.312h-4.8906zm0-5.9688h4.8906v4h-4.8906z"/>
    </symbol>
    <symbol id="g" overflow="visible">
      <path d="m17.75-9.3281v9.3281h-4.9219v-7.1094c0-1.3438-0.03125-2.2656-0.09375-2.7656s-0.16797-0.86719-0.3125-1.1094c-0.1875-0.3125-0.44922-0.55469-0.78125-0.73438-0.32422-0.17578-0.69531-0.26562-1.1094-0.26562-1.0234 0-1.8242 0.39844-2.4062 1.1875-0.58594 0.78125-0.875 1.8711-0.875 3.2656v7.5312h-4.8906v-21.281h4.8906v8.2031c0.73828-0.88281 1.5195-1.5391 2.3438-1.9688 0.83203-0.42578 1.75-0.64062 2.75-0.64062 1.7695 0 3.1133 0.54688 4.0312 1.6406 0.91406 1.0859 1.375 2.6562 1.375 4.7188z"/>
    </symbol>
    <symbol id="r" overflow="visible">
      <path d="m12.422-21.281v3.2188h-2.7031c-0.6875 0-1.1719 0.125-1.4531 0.375-0.27344 0.25-0.40625 0.6875-0.40625 1.3125v1.0625h4.1875v3.5h-4.1875v11.812h-4.8906v-11.812h-2.4375v-3.5h2.4375v-1.0625c0-1.6641 0.46094-2.8984 1.3906-3.7031 0.92578-0.80078 2.3672-1.2031 4.3281-1.2031z"/>
    </symbol>
    <symbol id="d" overflow="visible">
      <path d="m9.6406-12.188c-1.0859 0-1.9141 0.39062-2.4844 1.1719-0.57422 0.78125-0.85938 1.9062-0.85938 3.375s0.28516 2.5938 0.85938 3.375c0.57031 0.77344 1.3984 1.1562 2.4844 1.1562 1.0625 0 1.875-0.38281 2.4375-1.1562 0.57031-0.78125 0.85938-1.9062 0.85938-3.375s-0.28906-2.5938-0.85938-3.375c-0.5625-0.78125-1.375-1.1719-2.4375-1.1719zm0-3.5c2.6328 0 4.6914 0.71484 6.1719 2.1406 1.4766 1.418 2.2188 3.3867 2.2188 5.9062 0 2.5117-0.74219 4.4805-2.2188 5.9062-1.4805 1.418-3.5391 2.125-6.1719 2.125-2.6484 0-4.7148-0.70703-6.2031-2.125-1.4922-1.4258-2.2344-3.3945-2.2344-5.9062 0-2.5195 0.74219-4.4883 2.2344-5.9062 1.4883-1.4258 3.5547-2.1406 6.2031-2.1406z"/>
    </symbol>
    <symbol id="q" overflow="visible">
      <path d="m2.5781-20.406h5.875l7.4219 14v-14h4.9844v20.406h-5.875l-7.4219-14v14h-4.9844z"/>
    </symbol>
    <symbol id="p" overflow="visible">
      <path d="m2.1875-5.9688v-9.3438h4.9219v1.5312c0 0.83594-0.007813 1.875-0.015625 3.125-0.011719 1.25-0.015625 2.0859-0.015625 2.5 0 1.2422 0.03125 2.1328 0.09375 2.6719 0.070313 0.54297 0.17969 0.93359 0.32812 1.1719 0.20703 0.32422 0.47266 0.57422 0.79688 0.75 0.32031 0.16797 0.69141 0.25 1.1094 0.25 1.0195 0 1.8203-0.39062 2.4062-1.1719 0.58203-0.78125 0.875-1.8672 0.875-3.2656v-7.5625h4.8906v15.312h-4.8906v-2.2188c-0.74219 0.89844-1.5234 1.5586-2.3438 1.9844-0.82422 0.41406-1.7344 0.625-2.7344 0.625-1.7617 0-3.1055-0.53906-4.0312-1.625-0.92969-1.082-1.3906-2.6602-1.3906-4.7344z"/>
    </symbol>
    <symbol id="o" overflow="visible">
      <path d="m17.75-9.3281v9.3281h-4.9219v-7.1406c0-1.3203-0.03125-2.2344-0.09375-2.7344s-0.16797-0.86719-0.3125-1.1094c-0.1875-0.3125-0.44922-0.55469-0.78125-0.73438-0.32422-0.17578-0.69531-0.26562-1.1094-0.26562-1.0234 0-1.8242 0.39844-2.4062 1.1875-0.58594 0.78125-0.875 1.8711-0.875 3.2656v7.5312h-4.8906v-15.312h4.8906v2.2344c0.73828-0.88281 1.5195-1.5391 2.3438-1.9688 0.83203-0.42578 1.75-0.64062 2.75-0.64062 1.7695 0 3.1133 0.54688 4.0312 1.6406 0.91406 1.0859 1.375 2.6562 1.375 4.7188z"/>
    </symbol>
    <symbol id="n" overflow="visible">
      <path d="m2.5781-20.406h8.7344c2.5938 0 4.582 0.57812 5.9688 1.7344 1.3945 1.1484 2.0938 2.7891 2.0938 4.9219 0 2.1367-0.69922 3.7812-2.0938 4.9375-1.3867 1.1562-3.375 1.7344-5.9688 1.7344h-3.4844v7.0781h-5.25zm5.25 3.8125v5.7031h2.9219c1.0195 0 1.8047-0.25 2.3594-0.75 0.5625-0.5 0.84375-1.2031 0.84375-2.1094 0-0.91406-0.28125-1.6172-0.84375-2.1094-0.55469-0.48828-1.3398-0.73438-2.3594-0.73438z"/>
    </symbol>
    <symbol id="m" overflow="visible">
      <path d="m2.3594-15.312h4.8906v15.031c0 2.0508-0.49609 3.6172-1.4844 4.7031-0.98047 1.082-2.4062 1.625-4.2812 1.625h-2.4219v-3.2188h0.85938c0.92578 0 1.5625-0.21094 1.9062-0.625 0.35156-0.41797 0.53125-1.2461 0.53125-2.4844zm0-5.9688h4.8906v4h-4.8906z"/>
    </symbol>
    <symbol id="l" overflow="visible">
      <path d="m14.719-14.828v3.9844c-0.65625-0.45703-1.3242-0.79688-2-1.0156-0.66797-0.21875-1.3594-0.32812-2.0781-0.32812-1.3672 0-2.4336 0.40234-3.2031 1.2031-0.76172 0.79297-1.1406 1.9062-1.1406 3.3438 0 1.4297 0.37891 2.543 1.1406 3.3438 0.76953 0.79297 1.8359 1.1875 3.2031 1.1875 0.75781 0 1.4844-0.10938 2.1719-0.32812 0.6875-0.22656 1.3203-0.56641 1.9062-1.0156v4c-0.76172 0.28125-1.5391 0.48828-2.3281 0.625-0.78125 0.14453-1.5742 0.21875-2.375 0.21875-2.7617 0-4.9219-0.70703-6.4844-2.125-1.5547-1.4141-2.3281-3.3828-2.3281-5.9062 0-2.5312 0.77344-4.5039 2.3281-5.9219 1.5625-1.4141 3.7227-2.125 6.4844-2.125 0.80078 0 1.5938 0.074219 2.375 0.21875 0.78125 0.13672 1.5547 0.35156 2.3281 0.64062z"/>
    </symbol>
  </defs>
  <g style="" transform="matrix(1.010467, 0, 0, 0.984622, -5.931332, 0.430728)">
    <path d="m398.09 396.43c-1.1484 3.2812-2.4648 6.6367-3.8867 9.918 0.56641 4.1211 4.457 36.301-12.395 45.926-3.0391 1.7461-5.0781 12.293-5.6406 18.523l-0.0625 0.29688c-0.0625 0.20312-7.0117 20.145-26.105 20.391-19.164-0.24609-26.09-20.184-26.168-20.391l-0.042969-0.29688c-0.60938-6.2344-2.6328-16.777-5.6719-18.512-16.844-9.6367-12.941-41.82-12.395-45.941-1.418-3.2812-2.75-6.6367-3.8906-9.918-0.29688 9.7656-2.5586 25.688-12.359 42.992-8.9727 15.73-4.6992 42.398 0.47656 51.082l0.82812 1.4062c6.4727 10.938 23.703 40.023 58.465 40.102l0.72656-0.015625 0.71094 0.011719c34.766-0.074219 51.984-29.164 58.469-40.125l0.82812-1.3789c5.1875-8.6875 9.4375-35.312 0.50391-51.082-9.832-17.309-12.09-33.223-12.391-42.988z" style="fill: rgb(255, 255, 255);"/>
    <path d="m563.94 155.67s-6.4219 23.871-8.2891 27.164c-1.875 3.3281-6.7695 13.934-13.809 19.68-7.0859 5.7773-11.609 8.7266-13.57 9.0273-1.9531 0.3125-2.6055 0.085938-0.75-5.875 2-6.5781 6.3398-29.895 6.7656-32.168 0.42969-2.2695 4.7422-21.414 3.9805-28.469-0.4375-4.1445 2.8672-26.723 3.4062-28.402 0.54297-1.6914 5.0195-31.371 4.5938-37.004-0.42969-6.0195-5.9414-19.266-7.1055-22.883-1.2148-3.625-2.3516-14.449-4.5234-19.105-2.1797-4.6523-1.2617-8.9883-3.6172-8.6133-2.3477 0.375 0 8.6016-0.039062 9.5977-0.042969 1.0195 0.77734 12.113 0.90625 15.477 0.16406 3.3945 2.5312 15.43 3.5547 18.055 1.0625 2.6367 2.0703 7.8906 1.2422 12.621-0.82812 4.7422-1.5391 12.68-3.1758 14.93-1.6367 2.2773-6.5352 10.477-12.602 3.8711-1.8594-2.0234-7.4258-14.309-9.9688-18.211-2.4141-3.7188-5.2344-11.367-8.5352-15.445-3.2578-4.0781-6.0312-7.6211-13.352-14.461-7.332-6.8203-7.8945-9.1328-10.414-12.297-2.5469-3.2148-8.0859-10.922-10.684-13.91-1.707-1.9609-4.5742-2.2617-0.52734 4.1094 4.0195 6.3281 10.652 19.891 13.945 24.176 3.3047 4.2266 8.8242 14.973 10.566 18.082 1.6875 3.1484 7.0938 14.102 9.3359 18.133 2.25 4.0195 6.3789 13.371 9.4414 19.906 3.0742 6.4805 8.2383 19.68 9.1172 31.355 0.91406 11.676-0.39062 20.074-2.5664 28.836-2.207 8.7734-1.707 17.742-3.4453 24.031 0 0-1.0703 15.59-10.527 25.375-3.8477 3.9688-8.1133 7.5703-11.957 10.527 0.039062-9.4766-0.38672-17.465-0.58984-18.715 0 0-2.9531-1.1328-4.1484 7.6602-0.66016 4.9336-1.0469 10.754-1.625 15.691-2.582 1.8047-4.6328 3.0859-5.6328 3.7227-2.8906 1.8633-21.273 10.887-28.246 16.027-6.9727 5.1289-44.633 29.707-46.691 31.836-2.0625 2.1328-4.7266 2.9609-4.7266 2.9609s-0.18359-17.164 0.054688-19.246c0.28125-2.0273 0.25391-18.262 0.55469-20.094 0.30859-1.8633 0.95703-15.191 1.3711-17.465 0.42188-2.25 3.5234-20.215 0.42188-20.699-3.0742-0.49219-2.8047 7.2695-5.4766 13.121-2.6367 5.8203-3.7617 18.648-4.5547 22.559-0.74609 3.9492-2.5977 28.273-2.375 29.656 0.23047 1.3438-0.41016 13.473-2.3867 16-2 2.5469-3.2969 5.5547-3.0586 8.3281 0.24219 2.6328-7.0352 6.5977-7.5703 6.8711-4.4023-1.3438-15.332-1.6562-16.863 0.62891-0.74609 1.1211-1.0352 3.4336-8.0117 3.1875-0.36328 0-0.68359-0.039063-1.0195-0.054688-0.26172 0.015625-0.53125 0.023438-0.78906 0.054688-0.28516-0.035156-0.53906-0.039063-0.80469-0.054688-0.32031 0.015625-0.65625 0.054688-1.0195 0.054688-6.9727 0.24609-7.332-2.0625-8.0352-3.1875-1.1641-1.9609-12.652-1.8125-17.039-0.51562-1.6875-0.81641-7.5273-3.7422-7.3008-6.1211 0.25391-2.7617-1.0547-5.7773-3.0469-8.3086-2.0117-2.5156-2.6445-14.629-2.3984-16.012 0.22266-1.3711-1.625-25.699-2.3984-29.625-0.76563-3.9141-1.9141-16.738-4.5312-22.586-2.6602-5.8242-2.418-13.609-5.4805-13.098-3.0977 0.5 0 18.43 0.39844 20.691 0.4375 2.2891 1.1016 15.602 1.3906 17.473 0.29297 1.832 0.24609 18.066 0.54688 20.086 0.24609 2.0664 0.0625 19.266 0.0625 19.266s-2.6602-0.83984-4.7031-2.9805c-2.0781-2.1328-39.762-26.699-46.711-31.82-6.9883-5.1641-25.355-14.156-28.258-16.031-0.97266-0.63672-3.0234-1.9492-5.6211-3.7344-0.59375-4.957-0.98047-10.73-1.6367-15.68-1.1797-8.8086-4.1602-7.6875-4.1602-7.6875-0.19531 1.2617-0.58203 9.2383-0.55469 18.742-3.8711-2.9805-8.1094-6.5703-11.988-10.574-9.418-9.75-10.512-25.352-10.512-25.352-1.7188-6.2812-1.2305-15.262-3.4375-24.008-2.1562-8.7812-3.4648-17.164-2.5742-28.836 0.89453-11.691 6.0586-24.859 9.1094-31.375 3.0781-6.5234 7.1836-15.859 9.4375-19.902 2.2578-4.043 7.6562-14.969 9.3789-18.117 1.7031-3.1094 7.2539-13.832 10.551-18.109 3.3086-4.2578 9.9023-17.812 13.938-24.164 4.0391-6.3711 1.1719-6.0742-0.50781-4.1055-2.5938 3-8.1523 10.703-10.684 13.875-2.5273 3.2266-3.1094 5.5234-10.422 12.344-7.332 6.8164-10.098 10.367-13.383 14.441-3.2383 4.0938-6.082 11.73-8.5273 15.43-2.5273 3.9258-8.0859 16.195-9.9453 18.223-6.0977 6.6094-10.949-1.5977-12.59-3.8516-1.6445-2.2695-2.3672-10.199-3.207-14.945-0.82812-4.7266 0.24609-9.9688 1.2695-12.605s3.375-14.668 3.5156-18.043c0.16797-3.3828 0.99219-14.488 0.93359-15.484-0.023438-1.0352 2.2969-9.2461-0.023438-9.6133-2.3516-0.39062-1.4766 3.9609-3.6172 8.5977-2.1797 4.6875-3.332 15.508-4.5312 19.113-1.1719 3.6172-6.668 16.871-7.1172 22.895-0.42578 5.6406 4.0469 35.297 4.5742 36.992 0.53125 1.6758 3.8398 24.266 3.4219 28.402-0.76172 7.0898 3.543 26.234 3.9805 28.488 0.42188 2.2734 4.7422 25.57 6.7812 32.156 1.8242 5.9922 1.1875 6.2266-0.76172 5.8789-1.9648-0.29688-6.4727-3.2461-13.578-9.0039-7.0547-5.7852-11.949-16.398-13.805-19.695-1.8594-3.2969-8.293-27.172-8.293-27.172s-2.4883-4.625-2.7422 1.7656c-0.21094 6.3438 2.5547 24.539 6.7539 35.734 4.0898 10.953 14.203 20.086 15.551 21.391 1.3555 1.2539 17.047 9.7617 23.812 18.691 4.8203 6.3398 20.238 17.07 30.348 23.191 0.125 0.82812 0.21094 1.625 0.33594 2.4258 2.3359 15.18 7.0664 24.164 23.723 33.902 17.289 10.051 27.895 3.332 48.145 9.4258 17.527 5.293 15.988 18.316 15.27 21.688-2.2734-2.8945-40.035-21.285-64.73-21.301-8.6953 0-5.6562 10.367 0.68359 24.305 4.1211 9.0703 17.473 24.465 27.422 30.633 8.6758 5.4023 27.945 10.051 35.605 9.3242 0 0 1.4688-1.5664 2.8906-4.082-0.039062 0.12891-0.050781 0.28516-0.085938 0.42188-0.70703 1.4492-1.1641 2.457-1.2383 2.6211l0.60938 0.26172c0.003906-0.011719 0.039063-0.089843 0.085938-0.19141-0.18359 1.3438-0.28125 2.7812-0.22266 4.3867 0.10547 4.6406 1.0195 9.7773 2.3633 14.984 0.75 2.9531 2.418 7.8281 3.9141 11.938 1.4102 3.9219 2.6602 7.1914 2.75 7.4141 0 0-5.1875 34.895 11.301 44.555 3.6953 2.1719 5.4102 13.277 5.9531 17.594l-0.12891 1.7578h0.3125s6.6094 19.957 24.691 19.957c0.21094 0 0.35937-0.050781 0.53906-0.050781 0.16797 0 0.33594 0.050781 0.52734 0.050781 15.27 0 22.344-14.223 24.168-18.648h0.050782v-0.0625c0.32422-0.75 0.46875-1.2422 0.46875-1.2422s1.5078-16.66 6.1055-19.359c16.535-9.6602 11.312-44.555 11.312-44.555 0.22266-0.51953 0.42188-1.0039 0.63672-1.4961 0.15234-0.042969 1.1094-2.5586 2.2227-5.7891 1.3828-3.8984 3-8.9102 3.8125-12.066 1.3555-5.207 2.2305-10.344 2.3633-14.984 0.074219-2.0664-0.14062-3.832-0.4375-5.4805l0.11328-0.050781c-0.027344-0.050782-0.10156-0.21875-0.20703-0.4375-0.10156-0.50391-0.16797-1.0547-0.28516-1.5234 1.4102 2.5156 2.8555 4.082 2.8555 4.082 7.6484 0.72656 26.945-3.9219 35.629-9.3242 9.9219-6.1719 23.277-21.566 27.406-30.633 6.332-13.938 9.3672-24.305 0.6875-24.305-24.109 0.015626-60.652 17.555-64.5 21.078-0.51563-1.8242-3.8867-16.645 15.098-22.348 20.234-6.1133 30.867 0.64453 48.156-9.4375 16.656-9.7266 21.379-18.703 23.723-33.902 0.11719-0.79688 0.21875-1.6133 0.3125-2.4531 10.125-6.1094 25.555-16.828 30.398-23.172 6.7539-8.9258 22.418-17.426 23.789-18.715 1.3438-1.2773 11.469-10.406 15.559-21.363 4.1992-11.188 6.9727-29.367 6.7422-35.734-0.25391-6.4102-2.7383-1.7617-2.7383-1.7617zm-336.27 116.92c-1.8867-1.8047-3.6406-5.2578-5.1953-9.0625 6.7188 3.1211 17.625 9.082 17.625 9.082s20.977 12.23 20.043 12.293c-15.73 0.97656-27.816-7.7305-32.473-12.312zm26.715 75.703c-15.559-13.871-23.516-30.168-21.711-38.086 0.46094-2.0273 19.84-0.76562 33.023 13.234 9.7773 10.434 26.605 35.789 26.605 35.789-6.8828 0.49609-25.918-0.24219-37.918-10.938zm179.88-24.855c13.172-14 32.547-15.254 33.012-13.234 1.8086 7.918-6.1562 24.215-21.707 38.086-11.988 10.695-31.039 11.434-37.93 10.938 0.007813 0.003907 16.852-25.355 26.625-35.789zm38.105-51.707c-4.6797 4.5625-16.75 13.273-32.48 12.281-0.95312-0.0625 20.055-12.27 20.055-12.27s10.902-5.9688 17.617-9.0703c-1.5508 3.7695-3.3203 7.2266-5.1914 9.0586z" style="fill: rgb(255, 255, 255);"/>
    <use transform="matrix(1, 0, 0, 1, 70, 644)" xlink:href="#v"/>
    <use transform="matrix(1, 0, 0, 1, 90.55078125, 644)" xlink:href="#c"/>
    <use transform="matrix(1, 0, 0, 1, 104.359375, 644)" xlink:href="#a"/>
    <use transform="matrix(1, 0, 0, 1, 123.34765625, 644)" xlink:href="#f"/>
    <use transform="matrix(1, 0, 0, 1, 142.2421875, 644)" xlink:href="#b"/>
    <use transform="matrix(1, 0, 0, 1, 155.62890625, 644)" xlink:href="#a"/>
    <use transform="matrix(1, 0, 0, 1, 174.6171875, 644)" xlink:href="#k"/>
    <use transform="matrix(1, 0, 0, 1, 204.41015625, 644)" xlink:href="#j"/>
    <use transform="matrix(1, 0, 0, 1, 224.453125, 644)" xlink:href="#i"/>
    <use transform="matrix(1, 0, 0, 1, 252.453125, 644)" xlink:href="#h"/>
    <use transform="matrix(1, 0, 0, 1, 262.8671875, 644)" xlink:href="#f"/>
    <use transform="matrix(1, 0, 0, 1, 281.765625, 644)" xlink:href="#e"/>
    <use transform="matrix(1, 0, 0, 1, 310.9375, 644)" xlink:href="#a"/>
    <use transform="matrix(1, 0, 0, 1, 329.9296875, 644)" xlink:href="#u"/>
    <use transform="matrix(1, 0, 0, 1, 356.34375, 644)" xlink:href="#t"/>
    <use transform="matrix(1, 0, 0, 1, 376.5078125, 644)" xlink:href="#e"/>
    <use transform="matrix(1, 0, 0, 1, 405.6875, 644)" xlink:href="#s"/>
    <use transform="matrix(1, 0, 0, 1, 415.28125, 644)" xlink:href="#b"/>
    <use transform="matrix(1, 0, 0, 1, 428.66796875, 644)" xlink:href="#g"/>
    <use transform="matrix(1, 0, 0, 1, 70, 672)" xlink:href="#r"/>
    <use transform="matrix(1, 0, 0, 1, 82.18359375, 672)" xlink:href="#c"/>
    <use transform="matrix(1, 0, 0, 1, 95.9921875, 672)" xlink:href="#d"/>
    <use transform="matrix(1, 0, 0, 1, 115.2265625, 672)" xlink:href="#e"/>
    <use transform="matrix(1, 0, 0, 1, 154.15234375, 672)" xlink:href="#b"/>
    <use transform="matrix(1, 0, 0, 1, 167.53515625, 672)" xlink:href="#g"/>
    <use transform="matrix(1, 0, 0, 1, 187.46875, 672)" xlink:href="#a"/>
    <use transform="matrix(1, 0, 0, 1, 216.20703125, 672)" xlink:href="#q"/>
    <use transform="matrix(1, 0, 0, 1, 239.640625, 672)" xlink:href="#d"/>
    <use transform="matrix(1, 0, 0, 1, 258.87890625, 672)" xlink:href="#p"/>
    <use transform="matrix(1, 0, 0, 1, 278.8125, 672)" xlink:href="#o"/>
    <use transform="matrix(1, 0, 0, 1, 308.4921875, 672)" xlink:href="#n"/>
    <use transform="matrix(1, 0, 0, 1, 329.015625, 672)" xlink:href="#c"/>
    <use transform="matrix(1, 0, 0, 1, 342.8203125, 672)" xlink:href="#d"/>
    <use transform="matrix(1, 0, 0, 1, 362.05859375, 672)" xlink:href="#m"/>
    <use transform="matrix(1, 0, 0, 1, 371.65625, 672)" xlink:href="#a"/>
    <use transform="matrix(1, 0, 0, 1, 390.6484375, 672)" xlink:href="#l"/>
    <use transform="matrix(1, 0, 0, 1, 407.2421875, 672)" xlink:href="#b"/>
  </g>
</svg>